<?xml version="1.0" encoding="UTF-8"?>
<svg version="1.0" viewBox="0 0 253.04 263.45" xmlns="http://www.w3.org/2000/svg">
 <g transform="translate(-232.78 -265.52)">
  <g stroke-linejoin="round">
   <path d="m361 335.48c-0.00964 8.9327 5.2828 22.857 11.938 30.549 1.9809-11.954-5.6474-24.181-11.938-30.549z" fill="#504416" fill-rule="evenodd" stroke="#28220b"/>
   <g transform="matrix(-.9707 -.24028 -.24028 .9707 789.22 97.8)" fill="#540" stroke="#000" stroke-linecap="round">
    <path transform="matrix(.34922 0 0 .31107 232.09 231.23)" d="m359.69 342.47a2.3661 2.6562 0 1 1 -4.7321 0 2.3661 2.6562 0 1 1 4.7321 0z"/>
    <path transform="matrix(.34922 0 0 .31107 230.53 236.05)" d="m359.69 342.47a2.3661 2.6562 0 1 1 -4.7321 0 2.3661 2.6562 0 1 1 4.7321 0z"/>
    <path transform="matrix(.34922 0 0 .31107 228.12 238.6)" d="m359.69 342.47a2.3661 2.6562 0 1 1 -4.7321 0 2.3661 2.6562 0 1 1 4.7321 0z"/>
    <path transform="matrix(.34922 0 0 .31107 227.63 236.68)" d="m359.69 342.47a2.3661 2.6562 0 1 1 -4.7321 0 2.3661 2.6562 0 1 1 4.7321 0z"/>
    <path transform="matrix(.34922 0 0 .31107 228.88 235.07)" d="m359.69 342.47a2.3661 2.6562 0 1 1 -4.7321 0 2.3661 2.6562 0 1 1 4.7321 0z"/>
    <path transform="matrix(.34922 0 0 .31107 228.97 236.99)" d="m359.69 342.47a2.3661 2.6562 0 1 1 -4.7321 0 2.3661 2.6562 0 1 1 4.7321 0z"/>
    <path transform="matrix(.34922 0 0 .31107 230.98 234.53)" d="m359.69 342.47a2.3661 2.6562 0 1 1 -4.7321 0 2.3661 2.6562 0 1 1 4.7321 0z"/>
    <path transform="matrix(.34922 0 0 .31107 230.22 233.28)" d="m359.69 342.47a2.3661 2.6562 0 1 1 -4.7321 0 2.3661 2.6562 0 1 1 4.7321 0z"/>
    <path transform="matrix(.34922 0 0 .31107 231.69 233.06)" d="m359.69 342.47a2.3661 2.6562 0 1 1 -4.7321 0 2.3661 2.6562 0 1 1 4.7321 0z"/>
    <path transform="matrix(.34922 0 0 .31107 226.42 238.42)" d="m359.69 342.47a2.3661 2.6562 0 1 1 -4.7321 0 2.3661 2.6562 0 1 1 4.7321 0z"/>
    <path transform="matrix(.34922 0 0 .31107 226.02 240.07)" d="m359.69 342.47a2.3661 2.6562 0 1 1 -4.7321 0 2.3661 2.6562 0 1 1 4.7321 0z"/>
    <path transform="matrix(.34922 0 0 .31107 225.44 242.7)" d="m359.69 342.47a2.3661 2.6562 0 1 1 -4.7321 0 2.3661 2.6562 0 1 1 4.7321 0z"/>
    <path transform="matrix(.34922 0 0 .31107 223.39 244.45)" d="m359.69 342.47a2.3661 2.6562 0 1 1 -4.7321 0 2.3661 2.6562 0 1 1 4.7321 0z"/>
    <path transform="matrix(.34922 0 0 .31107 222 247.08)" d="m359.69 342.47a2.3661 2.6562 0 1 1 -4.7321 0 2.3661 2.6562 0 1 1 4.7321 0z"/>
    <path transform="matrix(.34922 0 0 .31107 223.61 247.66)" d="m359.69 342.47a2.3661 2.6562 0 1 1 -4.7321 0 2.3661 2.6562 0 1 1 4.7321 0z"/>
    <path transform="matrix(.34922 0 0 .31107 224.19 246.28)" d="m359.69 342.47a2.3661 2.6562 0 1 1 -4.7321 0 2.3661 2.6562 0 1 1 4.7321 0z"/>
    <path transform="matrix(.34922 0 0 .31107 225.08 244.58)" d="m359.69 342.47a2.3661 2.6562 0 1 1 -4.7321 0 2.3661 2.6562 0 1 1 4.7321 0z"/>
    <path transform="matrix(.34922 0 0 .31107 222.18 245.78)" d="m359.69 342.47a2.3661 2.6562 0 1 1 -4.7321 0 2.3661 2.6562 0 1 1 4.7321 0z"/>
    <path transform="matrix(.34922 0 0 .31107 223.65 242.44)" d="m359.69 342.47a2.3661 2.6562 0 1 1 -4.7321 0 2.3661 2.6562 0 1 1 4.7321 0z"/>
    <path transform="matrix(.34922 0 0 .31107 224.82 241.14)" d="m359.69 342.47a2.3661 2.6562 0 1 1 -4.7321 0 2.3661 2.6562 0 1 1 4.7321 0z"/>
    <path transform="matrix(.34922 0 0 .31107 226.69 241.19)" d="m359.69 342.47a2.3661 2.6562 0 1 1 -4.7321 0 2.3661 2.6562 0 1 1 4.7321 0z"/>
    <path transform="matrix(.34922 0 0 .31107 220.75 246.63)" d="m359.69 342.47a2.3661 2.6562 0 1 1 -4.7321 0 2.3661 2.6562 0 1 1 4.7321 0z"/>
    <path transform="matrix(.34922 0 0 .31107 219.23 248.69)" d="m359.69 342.47a2.3661 2.6562 0 1 1 -4.7321 0 2.3661 2.6562 0 1 1 4.7321 0z"/>
    <path transform="matrix(.34922 0 0 .31107 221.24 248.33)" d="m359.69 342.47a2.3661 2.6562 0 1 1 -4.7321 0 2.3661 2.6562 0 1 1 4.7321 0z"/>
    <path transform="matrix(.34922 0 0 .31107 222.4 249.58)" d="m359.69 342.47a2.3661 2.6562 0 1 1 -4.7321 0 2.3661 2.6562 0 1 1 4.7321 0z"/>
    <path transform="matrix(.34922 0 0 .31107 220.66 250.96)" d="m359.69 342.47a2.3661 2.6562 0 1 1 -4.7321 0 2.3661 2.6562 0 1 1 4.7321 0z"/>
    <path transform="matrix(.34922 0 0 .31107 219.99 249.8)" d="m359.69 342.47a2.3661 2.6562 0 1 1 -4.7321 0 2.3661 2.6562 0 1 1 4.7321 0z"/>
    <path transform="matrix(.34922 0 0 .31107 218.61 251.19)" d="m359.69 342.47a2.3661 2.6562 0 1 1 -4.7321 0 2.3661 2.6562 0 1 1 4.7321 0z"/>
    <path transform="matrix(.34922 0 0 .31107 217.94 250.2)" d="m359.69 342.47a2.3661 2.6562 0 1 1 -4.7321 0 2.3661 2.6562 0 1 1 4.7321 0z"/>
    <path transform="matrix(.34922 0 0 .31107 217.27 252.66)" d="m359.69 342.47a2.3661 2.6562 0 1 1 -4.7321 0 2.3661 2.6562 0 1 1 4.7321 0z"/>
    <path transform="matrix(.34922 0 0 .31107 218.25 253.2)" d="m359.69 342.47a2.3661 2.6562 0 1 1 -4.7321 0 2.3661 2.6562 0 1 1 4.7321 0z"/>
    <path transform="matrix(.34922 0 0 .31107 219.77 252.08)" d="m359.69 342.47a2.3661 2.6562 0 1 1 -4.7321 0 2.3661 2.6562 0 1 1 4.7321 0z"/>
    <path transform="matrix(.34922 0 0 .31107 221.56 244.4)" d="m359.69 342.47a2.3661 2.6562 0 1 1 -4.7321 0 2.3661 2.6562 0 1 1 4.7321 0z"/>
    <path transform="matrix(.34922 0 0 .31107 223.83 242.08)" d="m359.69 342.47a2.3661 2.6562 0 1 1 -4.7321 0 2.3661 2.6562 0 1 1 4.7321 0z"/>
    <path transform="matrix(.34922 0 0 .31107 227.81 240.25)" d="m359.69 342.47a2.3661 2.6562 0 1 1 -4.7321 0 2.3661 2.6562 0 1 1 4.7321 0z"/>
    <path transform="matrix(.34922 0 0 .31107 226.87 243.33)" d="m359.69 342.47a2.3661 2.6562 0 1 1 -4.7321 0 2.3661 2.6562 0 1 1 4.7321 0z"/>
   </g>
   <path d="m361 335.48c3.9356 8.2723 12.026 25.868 11.938 30.549 1.9809-11.954-5.6474-24.181-11.938-30.549z" fill="#504416" fill-rule="evenodd" stroke="#28220b"/>
  </g>
  <g fill="#786721" fill-rule="evenodd" stroke="#504416" stroke-linejoin="round">
   <path d="m367.16 473.47c-1.1742 0.39661-2.3711 0.85718-3.4688 1.0625-1.6719 0.31273-3.2812 0.39798-4.7812 0.28125-1.5001-0.11673-2.9148-0.43981-4.25-0.96875-0.83573-0.33106-1.5704-0.88795-2.3438-1.375-0.0166 0.33157-0.01454 0.73186-0.03125 1.0625-4.7982 3.0305-9.2048 7.0971-10.594 9.875 1.9361 2.6516 10.824 6.9236 17.938 8.3125 9.2176-1.7257 16.396-6.458 17.406-8.5625-1.5152-3.0305-5.5506-7.1997-9.8438-9.0938-0.0117-0.17996-0.01961-0.41299-0.03125-0.59375z"/>
   <path d="m366.59 462.56c-1.1264 0.33949-2.246 0.69785-3.3125 0.8125-1.5404 0.1656-3.027 0.11062-4.4688-0.09375s-2.8444-0.54281-4.2188-1c-0.62521-0.20798-1.2278-0.50734-1.8438-0.75-0.16081 3.5024-0.26677 7.5278-0.4375 10.938 0.77333 0.48705 1.508 1.0439 2.3438 1.375 1.3352 0.52894 2.7499 0.85202 4.25 0.96875s3.1094 0.03148 4.7812-0.28125c1.0977-0.20532 2.2946-0.66589 3.4688-1.0625-0.21349-3.3142-0.36807-7.3461-0.5625-10.906z"/>
   <path d="m366.09 450.09c-0.73419 0.22364-1.4591 0.48902-2.2188 0.59375-1.2637 0.17422-2.5454 0.196-3.875 0.0625s-2.7039-0.39791-4.0938-0.8125c-0.8771-0.26164-1.7883-0.66632-2.6875-1.0312-0.17327 4.1018-0.28491 8.6211-0.46875 12.625 0.61596 0.24266 1.2185 0.54202 1.8438 0.75 1.3744 0.45719 2.777 0.79563 4.2188 1s2.9283 0.25935 4.4688 0.09375c1.0665-0.11465 2.1861-0.47301 3.3125-0.8125-0.20506-3.7546-0.31401-8.4984-0.5-12.469z"/>
   <path d="m365.53 434.5c-0.76341 0.06174-1.5256 0.15665-2.2812 0.15625-1.2626-6.7e-4 -2.5087-0.07901-3.75-0.25-1.9441-0.26781-3.8565-0.92059-5.75-1.5938-0.20123 5.1596-0.31815 11.049-0.53125 16.094 0.89924 0.36493 1.8104 0.76961 2.6875 1.0312 1.3899 0.41459 2.7641 0.679 4.0938 0.8125 1.3296 0.1335 2.6113 0.11172 3.875-0.0625 0.75967-0.10473 1.4846-0.37011 2.2188-0.59375-0.22938-4.8967-0.35746-10.476-0.5625-15.594z"/>
   <path d="m365.03 419.81c-0.77191 0.22439-1.5566 0.48245-2.3125 0.53125-1.0508 0.06783-2.0675-0.01723-3.0938-0.21875s-2.0533-0.51669-3.0625-0.90625c-0.77734-0.30007-1.5414-0.66232-2.3125-1.0312-0.17756 4.7418-0.31713 9.9361-0.5 14.625 1.8935 0.67316 3.8059 1.3259 5.75 1.5938 1.2413 0.17099 2.4874 0.24933 3.75 0.25 0.75564 4e-4 1.5178-0.09451 2.2812-0.15625-0.19119-4.7721-0.32567-9.8088-0.5-14.688z"/>
   <path d="m364.75 409.47c-0.59358 0.13524-1.1877 0.30047-1.7812 0.375-1.0733 0.13475-2.1455 0.17121-3.2188 0.0625s-2.1455-0.37117-3.2188-0.78125c-0.64733-0.24733-1.2902-0.68866-1.9375-1.0625-0.12129 3.2956-0.22082 6.8422-0.34375 10.125 0.77108 0.36893 1.5352 0.73118 2.3125 1.0312 1.0092 0.38956 2.0362 0.70473 3.0625 0.90625s2.043 0.28658 3.0938 0.21875c0.75594-0.0488 1.5406-0.30686 2.3125-0.53125-0.12497-3.4972-0.16376-6.8213-0.28125-10.344z"/>
   <path d="m364.47 399c-0.59275 0.09775-1.199 0.2361-1.7812 0.28125-1.0218 0.07924-2.0164 0.04948-3-0.0625-0.98355-0.11198-1.9684-0.31583-2.9062-0.65625-0.63374-0.23003-1.2337-0.58892-1.8438-0.9375-0.12355 3.4063-0.21873 7.0403-0.34375 10.438 0.64733 0.37384 1.2902 0.81517 1.9375 1.0625 1.0733 0.41008 2.1455 0.67254 3.2188 0.78125s2.1455 0.07225 3.2188-0.0625c0.59358-0.07453 1.1877-0.23976 1.7812-0.375-0.11891-3.565-0.16746-6.8893-0.28125-10.469z"/>
   <path d="m359.59 306.69c-0.69297-0.06538-1.5225 3.1745-2.25 11.812 2.4025-7.1787 2.181-1.7275 1.9062 4.375-0.27588 1.3263-0.50151 2.7504-0.6875 4.25-0.85729 0.21677-1.6722 0.77258-2.3125 1.625 0.45436-7.9631-4.9764-19.592-8.8125-19.656-1.8077-0.03037-3.2671 2.5473-3.5625 9.25-5.9428-5.2926-11.557-8.2215-16.188-8.375-7.9038-0.26202-12.906 7.4759-11.625 24.938 3.7455-26.952 24.06-14.082 38.969-3.125-0.06913 0.46154-0.09989 0.94796-0.09375 1.4688-15.825-8.9095-49.4-9.0978-46.219 31.719 5.0108-34.543 34.669-30.781 46.312-30.562 0.02811 0.23873 0.04926 0.46999 0.09375 0.71875-10.051-2.3403-25.188 9.765-25.812 30.094 8.3837-16.021 17.165-24.543 26.156-28.719 0.12718 0.44605 0.25703 0.90253 0.4375 1.375-11.064 4.1492-13.242 19.293-13.219 23.781 3.8449-8.4782 8.1326-16.372 13.781-22.531 0.1234 0.26537 0.23444 0.54003 0.375 0.8125-0.54111 20.057-1.2234 38.861-1.9062 57.688 0.61004 0.34858 1.21 0.70747 1.8438 0.9375 0.93786 0.34042 1.9227 0.54427 2.9062 0.65625 0.98355 0.11198 1.9782 0.14174 3 0.0625 0.58223-0.04515 1.1885-0.1835 1.7812-0.28125-0.64738-20.365-1.2662-41.044-1.5625-59.562 0.13809-0.57028 0.22064-1.0995 0.3125-1.625 3.887 3.9927 7.1085 8.4715 9.2812 13.75 0.36686-5.399-0.84504-8.9883-2.6875-11.438 5.6545 3.484 12.049 9.522 17.062 19.531 0.9373-5.1231-4.4054-18.571-13.312-23.406 12.822-0.91907 25.187 1.572 35.281 23.156-1.7839-27.211-24.132-37.33-42.156-24.906-1.0014 0.01771-2.0414 0.14074-3.0938 0.40625 0.06782-1.2056 0.03142-2.2728-0.125-3.1875 26.069-22.472 43.452-7.3515 52.969 18.594-5.198-34.985-24.561-40.333-39.25-33.094-1.5785-12.818-11.193-13.215-16.156-0.40625-0.02221-5.5886-0.6376-10.05-1.4375-10.125zm10 6.3125c1.9725-0.16123 4.2973 1.1191 7.0938 4.4688-5.5629 2.87-10.408 7.5298-13.5 13.062-0.57635-1.8793-1.6364-2.9612-2.8125-3.3438 0.02533-0.18336 0.03879-0.37768 0.0625-0.5625 2.488-6.9434 5.118-13.295 9.1562-13.625zm-21.125 3.9688c2.5774 0.10347 5.1848 4.3819 7.5625 12.094-0.34691 0.53252-0.62121 1.1541-0.8125 1.875-3.3895-4.5492-6.8168-8.401-10.156-11.531 1.105-1.675 2.2543-2.4838 3.4062-2.4375z"/>
  </g>
  <g stroke-linejoin="round">
   <g fill="#540" stroke="#000" stroke-linecap="round">
    <path transform="matrix(.34922 0 0 .31107 232.09 231.23)" d="m359.69 342.47a2.3661 2.6562 0 1 1 -4.7321 0 2.3661 2.6562 0 1 1 4.7321 0z"/>
    <path transform="matrix(.34922 0 0 .31107 230.53 236.05)" d="m359.69 342.47a2.3661 2.6562 0 1 1 -4.7321 0 2.3661 2.6562 0 1 1 4.7321 0z"/>
    <path transform="matrix(.34922 0 0 .31107 228.12 238.6)" d="m359.69 342.47a2.3661 2.6562 0 1 1 -4.7321 0 2.3661 2.6562 0 1 1 4.7321 0z"/>
    <path transform="matrix(.34922 0 0 .31107 227.63 236.68)" d="m359.69 342.47a2.3661 2.6562 0 1 1 -4.7321 0 2.3661 2.6562 0 1 1 4.7321 0z"/>
    <path transform="matrix(.34922 0 0 .31107 228.88 235.07)" d="m359.69 342.47a2.3661 2.6562 0 1 1 -4.7321 0 2.3661 2.6562 0 1 1 4.7321 0z"/>
    <path transform="matrix(.34922 0 0 .31107 228.97 236.99)" d="m359.69 342.47a2.3661 2.6562 0 1 1 -4.7321 0 2.3661 2.6562 0 1 1 4.7321 0z"/>
    <path transform="matrix(.34922 0 0 .31107 230.98 234.53)" d="m359.69 342.47a2.3661 2.6562 0 1 1 -4.7321 0 2.3661 2.6562 0 1 1 4.7321 0z"/>
    <path transform="matrix(.34922 0 0 .31107 230.22 233.28)" d="m359.69 342.47a2.3661 2.6562 0 1 1 -4.7321 0 2.3661 2.6562 0 1 1 4.7321 0z"/>
    <path transform="matrix(.34922 0 0 .31107 231.69 233.06)" d="m359.69 342.47a2.3661 2.6562 0 1 1 -4.7321 0 2.3661 2.6562 0 1 1 4.7321 0z"/>
    <path transform="matrix(.34922 0 0 .31107 226.42 238.42)" d="m359.69 342.47a2.3661 2.6562 0 1 1 -4.7321 0 2.3661 2.6562 0 1 1 4.7321 0z"/>
    <path transform="matrix(.34922 0 0 .31107 226.02 240.07)" d="m359.69 342.47a2.3661 2.6562 0 1 1 -4.7321 0 2.3661 2.6562 0 1 1 4.7321 0z"/>
    <path transform="matrix(.34922 0 0 .31107 225.44 242.7)" d="m359.69 342.47a2.3661 2.6562 0 1 1 -4.7321 0 2.3661 2.6562 0 1 1 4.7321 0z"/>
    <path transform="matrix(.34922 0 0 .31107 223.39 244.45)" d="m359.69 342.47a2.3661 2.6562 0 1 1 -4.7321 0 2.3661 2.6562 0 1 1 4.7321 0z"/>
    <path transform="matrix(.34922 0 0 .31107 222 247.08)" d="m359.69 342.47a2.3661 2.6562 0 1 1 -4.7321 0 2.3661 2.6562 0 1 1 4.7321 0z"/>
    <path transform="matrix(.34922 0 0 .31107 223.61 247.66)" d="m359.69 342.47a2.3661 2.6562 0 1 1 -4.7321 0 2.3661 2.6562 0 1 1 4.7321 0z"/>
    <path transform="matrix(.34922 0 0 .31107 224.19 246.28)" d="m359.69 342.47a2.3661 2.6562 0 1 1 -4.7321 0 2.3661 2.6562 0 1 1 4.7321 0z"/>
    <path transform="matrix(.34922 0 0 .31107 225.08 244.58)" d="m359.69 342.47a2.3661 2.6562 0 1 1 -4.7321 0 2.3661 2.6562 0 1 1 4.7321 0z"/>
    <path transform="matrix(.34922 0 0 .31107 222.18 245.78)" d="m359.69 342.47a2.3661 2.6562 0 1 1 -4.7321 0 2.3661 2.6562 0 1 1 4.7321 0z"/>
    <path transform="matrix(.34922 0 0 .31107 223.65 242.44)" d="m359.69 342.47a2.3661 2.6562 0 1 1 -4.7321 0 2.3661 2.6562 0 1 1 4.7321 0z"/>
    <path transform="matrix(.34922 0 0 .31107 224.82 241.14)" d="m359.69 342.47a2.3661 2.6562 0 1 1 -4.7321 0 2.3661 2.6562 0 1 1 4.7321 0z"/>
    <path transform="matrix(.34922 0 0 .31107 226.69 241.19)" d="m359.69 342.47a2.3661 2.6562 0 1 1 -4.7321 0 2.3661 2.6562 0 1 1 4.7321 0z"/>
    <path transform="matrix(.34922 0 0 .31107 220.75 246.63)" d="m359.69 342.47a2.3661 2.6562 0 1 1 -4.7321 0 2.3661 2.6562 0 1 1 4.7321 0z"/>
    <path transform="matrix(.34922 0 0 .31107 219.23 248.69)" d="m359.69 342.47a2.3661 2.6562 0 1 1 -4.7321 0 2.3661 2.6562 0 1 1 4.7321 0z"/>
    <path transform="matrix(.34922 0 0 .31107 221.24 248.33)" d="m359.69 342.47a2.3661 2.6562 0 1 1 -4.7321 0 2.3661 2.6562 0 1 1 4.7321 0z"/>
    <path transform="matrix(.34922 0 0 .31107 222.4 249.58)" d="m359.69 342.47a2.3661 2.6562 0 1 1 -4.7321 0 2.3661 2.6562 0 1 1 4.7321 0z"/>
    <path transform="matrix(.34922 0 0 .31107 220.66 250.96)" d="m359.69 342.47a2.3661 2.6562 0 1 1 -4.7321 0 2.3661 2.6562 0 1 1 4.7321 0z"/>
    <path transform="matrix(.34922 0 0 .31107 219.99 249.8)" d="m359.69 342.47a2.3661 2.6562 0 1 1 -4.7321 0 2.3661 2.6562 0 1 1 4.7321 0z"/>
    <path transform="matrix(.34922 0 0 .31107 218.61 251.19)" d="m359.69 342.47a2.3661 2.6562 0 1 1 -4.7321 0 2.3661 2.6562 0 1 1 4.7321 0z"/>
    <path transform="matrix(.34922 0 0 .31107 217.94 250.2)" d="m359.69 342.47a2.3661 2.6562 0 1 1 -4.7321 0 2.3661 2.6562 0 1 1 4.7321 0z"/>
    <path transform="matrix(.34922 0 0 .31107 217.27 252.66)" d="m359.69 342.47a2.3661 2.6562 0 1 1 -4.7321 0 2.3661 2.6562 0 1 1 4.7321 0z"/>
    <path transform="matrix(.34922 0 0 .31107 218.25 253.2)" d="m359.69 342.47a2.3661 2.6562 0 1 1 -4.7321 0 2.3661 2.6562 0 1 1 4.7321 0z"/>
    <path transform="matrix(.34922 0 0 .31107 219.77 252.08)" d="m359.69 342.47a2.3661 2.6562 0 1 1 -4.7321 0 2.3661 2.6562 0 1 1 4.7321 0z"/>
    <path transform="matrix(.34922 0 0 .31107 221.56 244.4)" d="m359.69 342.47a2.3661 2.6562 0 1 1 -4.7321 0 2.3661 2.6562 0 1 1 4.7321 0z"/>
    <path transform="matrix(.34922 0 0 .31107 223.83 242.08)" d="m359.69 342.47a2.3661 2.6562 0 1 1 -4.7321 0 2.3661 2.6562 0 1 1 4.7321 0z"/>
    <path transform="matrix(.34922 0 0 .31107 227.81 240.25)" d="m359.69 342.47a2.3661 2.6562 0 1 1 -4.7321 0 2.3661 2.6562 0 1 1 4.7321 0z"/>
    <path transform="matrix(.34922 0 0 .31107 226.87 243.33)" d="m359.69 342.47a2.3661 2.6562 0 1 1 -4.7321 0 2.3661 2.6562 0 1 1 4.7321 0z"/>
   </g>
   <path d="m358.57 333.61c-5.6772 7.411-10.971 13.902-18.929 26.786 0.94947-12.08 11.292-22.115 18.929-26.786z" fill="#504416" fill-rule="evenodd" stroke="#28220b"/>
  </g>
  <path d="m293.84 495.13c44.655 20.592 88.331 18.916 131.25 0" fill="none"/>
 </g>
</svg>
